<?xml version="1.0" encoding="UTF-8" standalone="no"?>
<!-- Created with Inkscape (http://www.inkscape.org/) -->

<svg
   width="55mm"
   height="27mm"
   viewBox="0 0 55 27"
   version="1.1"
   id="svg1"
   inkscape:version="1.3 (1:1.3+202307231459+0e150ed6c4)"
   sodipodi:docname="WIP02.2_white.svg"
   xmlns:inkscape="http://www.inkscape.org/namespaces/inkscape"
   xmlns:sodipodi="http://sodipodi.sourceforge.net/DTD/sodipodi-0.dtd"
   xmlns="http://www.w3.org/2000/svg"
   xmlns:svg="http://www.w3.org/2000/svg">
  <sodipodi:namedview
     id="namedview1"
     pagecolor="#ffffff"
     bordercolor="#000000"
     borderopacity="0.25"
     inkscape:showpageshadow="2"
     inkscape:pageopacity="0.0"
     inkscape:pagecheckerboard="true"
     inkscape:deskcolor="#d1d1d1"
     inkscape:document-units="mm"
     inkscape:zoom="3.4921437"
     inkscape:cx="90.059295"
     inkscape:cy="94.068294"
     inkscape:window-width="1705"
     inkscape:window-height="839"
     inkscape:window-x="0"
     inkscape:window-y="25"
     inkscape:window-maximized="1"
     inkscape:current-layer="layer1" />
  <defs
     id="defs1">
    <clipPath
       clipPathUnits="userSpaceOnUse"
       id="clipPath5">
      <path
         style="fill:#000000;stroke-width:1"
         d="m 91.697556,157.13302 v -15.24 h 30.183664 30.18367 v 15.24 15.24 H 121.88122 91.697556 Z"
         id="path6" />
    </clipPath>
  </defs>
  <g
     inkscape:label="Layer 1"
     inkscape:groupmode="layer"
     id="layer1">
    <path
       style="fill:#ffffff;stroke:#1a1a1a;stroke-width:0.0488907;stroke-dasharray:none"
       d="m 127.46922,168.60901 c 1.16657,-0.20382 1.80214,-0.42248 3.11371,-1.07121 1.31786,-0.65185 1.51644,-0.68526 2.45077,-0.41236 0.34978,0.10216 0.47163,0.0994 0.97367,-0.0223 0.31562,-0.0765 0.90066,-0.15799 1.3001,-0.18111 0.39943,-0.0231 0.87938,-0.10332 1.06654,-0.17821 0.35995,-0.14402 0.81127,-0.64301 0.6348,-0.70184 -0.26301,-0.0877 -0.0389,-0.17285 0.53052,-0.2016 0.48525,-0.0245 0.68848,-0.0752 0.88557,-0.22092 0.14115,-0.10435 0.38067,-0.18971 0.53439,-0.19044 0.42788,-0.002 1.16446,-0.20061 1.63014,-0.43948 l 0.4202,-0.21555 -1.90187,-0.0578 c -2.26122,-0.0687 -3.02552,-0.18256 -4.55881,-0.67913 -0.63418,-0.20539 -1.30661,-0.41329 -1.49428,-0.46201 -0.27156,-0.0705 -0.34469,-0.13042 -0.35819,-0.29356 -0.01,-0.11556 0.0377,-0.22597 0.10839,-0.25309 0.15072,-0.0578 0.16689,-0.48602 0.0238,-0.62915 -0.079,-0.079 -0.079,-0.12418 0,-0.2032 0.0559,-0.0559 0.1016,-0.16574 0.1016,-0.24413 0,-0.0784 0.0762,-0.16245 0.16933,-0.18681 0.10132,-0.0265 0.16934,-0.11548 0.16934,-0.22154 0,-0.11425 0.0542,-0.17726 0.1524,-0.17726 0.21992,0 0.3556,-0.16798 0.3556,-0.44026 0,-0.17184 0.0419,-0.23707 0.1524,-0.23707 0.20866,0 0.3556,-0.16443 0.3556,-0.39793 0,-0.13108 0.0498,-0.19474 0.1524,-0.19474 0.20866,0 0.3556,-0.16443 0.3556,-0.39793 0,-0.13753 0.0492,-0.19473 0.16738,-0.19473 0.18809,0 0.46937,-0.36818 0.38525,-0.50428 -0.0305,-0.0493 0.015,-0.0884 0.10277,-0.0884 0.21475,0 0.3606,-0.16297 0.3606,-0.40293 0,-0.11718 0.0365,-0.17716 0.0884,-0.14511 0.13293,0.0822 0.33496,-0.12422 0.33496,-0.34215 0,-0.13432 0.0637,-0.2081 0.21167,-0.24524 0.16656,-0.0418 0.21166,-0.10691 0.21166,-0.30552 0,-0.18986 0.0391,-0.25238 0.15792,-0.25238 0.18854,0 0.60386,-0.30956 0.60462,-0.45065 2.9e-4,-0.0548 0.11459,-0.16459 0.254,-0.24392 0.15196,-0.0865 0.25346,-0.21362 0.25346,-0.3175 0,-0.11866 0.0551,-0.17327 0.1749,-0.17327 0.24629,0 0.50244,-0.15259 0.50244,-0.29931 0,-0.0682 0.0677,-0.12402 0.15049,-0.12402 0.21991,0 0.52684,-0.24029 0.52684,-0.41245 0,-0.0868 0.12362,-0.2078 0.29633,-0.29017 0.20694,-0.0987 0.29752,-0.19919 0.30025,-0.33318 0.004,-0.17829 0.11938,-0.30736 0.5453,-0.60812 0.16063,-0.11344 0.16154,-0.12616 0.0201,-0.28249 -0.14332,-0.15836 -0.13707,-0.16805 0.19166,-0.29718 0.20231,-0.0795 0.39867,-0.23605 0.48529,-0.38696 0.08,-0.13941 0.26032,-0.32132 0.40068,-0.40424 0.37876,-0.22374 0.97776,-0.79896 0.97776,-0.93895 0,-0.0672 0.2667,-0.37237 0.59267,-0.67817 0.32597,-0.30581 0.59267,-0.60219 0.59267,-0.65863 0,-0.0564 0.2667,-0.35644 0.59266,-0.66666 0.32597,-0.31021 0.59267,-0.61474 0.59267,-0.67672 0,-0.062 0.2286,-0.3221 0.508,-0.57804 0.48283,-0.44229 0.65327,-0.71247 0.38435,-0.60928 -0.068,0.0261 0.12442,-0.20931 0.42761,-0.52313 0.30319,-0.31381 0.5334,-0.61709 0.51158,-0.67395 -0.0218,-0.0569 0.14771,-0.28794 0.37673,-0.51351 0.22902,-0.22558 0.4164,-0.48125 0.4164,-0.56817 0,-0.0869 0.1905,-0.37706 0.42333,-0.64475 0.40999,-0.47138 0.5179,-0.72428 0.33503,-0.78524 -0.0486,-0.0162 0.0266,-0.18129 0.16698,-0.36689 0.27238,-0.36006 0.35943,-0.65238 0.14007,-0.47032 -0.0952,0.079 -0.12583,0.0689 -0.14854,-0.049 -0.02,-0.10373 -0.25715,0.13128 -0.78584,0.77867 -1.51976,1.86099 -3.076,3.21691 -5.63437,4.9091 -1.76223,1.1656 -3.08986,1.90795 -6.30766,3.52695 -5.3709,2.70231 -5.89242,3.07649 -8.23826,5.91086 -0.67446,0.81492 -1.62054,1.8722 -2.10239,2.3495 l -0.8761,0.86784 -0.66337,-0.0254 c -0.45362,-0.0174 -0.44766,-0.0399 -2.05061,-0.84705 -2.25711,-1.13659 -3.65888,-1.6601 -6.07628,-2.26925 -2.67864,-0.67497 -4.52488,-1.31547 -5.3011,-1.83905 -0.32994,-0.22255 -0.79039,-0.51391 -1.02322,-0.64745 -0.23284,-0.13354 -0.63289,-0.42012 -0.889,-0.63683 -0.25612,-0.21672 -0.66635,-0.53776 -0.91162,-0.71343 -0.24527,-0.17568 -0.48211,-0.38697 -0.5263,-0.46954 -0.0442,-0.0826 -0.38724,-0.30979 -0.76233,-0.50494 -0.3751,-0.19514 -1.1641,-0.65813 -1.75334,-1.02886 -0.64078,-0.40316 -1.26106,-0.72585 -1.54339,-0.80291 -0.25961,-0.0709 -0.56727,-0.18548 -0.68369,-0.25469 -0.62734,-0.37295 -2.05367,-1.05192 -2.20979,-1.05192 -0.108006,0 -0.406368,-0.22055 -0.742241,-0.54867 -0.761916,-0.74434 -0.848421,-0.8002 -1.243972,-0.8033 -0.320489,-0.003 -0.384787,-0.048 -0.9533,-0.67457 -0.335296,-0.36954 -0.675945,-0.68985 -0.756997,-0.7118 -0.08105,-0.022 -0.248383,-0.0623 -0.371846,-0.0896 -0.159611,-0.0353 -0.298864,-0.18152 -0.481898,-0.50584 -0.298702,-0.52927 -0.624006,-0.81484 -0.928208,-0.81484 -0.118112,0 -0.284424,-0.0631 -0.369582,-0.14013 -0.148438,-0.13433 -0.154834,-0.11816 -0.154834,0.39145 0,1.20911 1.123209,3.76345 2.309451,5.25201 1.074886,1.34883 1.981444,2.16093 3.024323,2.70921 0.480103,0.25241 1.238534,0.74034 1.685404,1.08429 0.93481,0.71951 1.50802,1.03119 2.33947,1.27211 0.32433,0.094 0.87544,0.25311 1.22469,0.35363 0.71584,0.20604 2.56298,1.05112 3.372,1.54273 0.40775,0.24777 0.71023,0.35594 1.26663,0.45297 2.05633,0.35859 3.79418,0.83171 5.55552,1.51246 1.35462,0.52354 2.33692,1.04686 3.13083,1.66794 l 0.66732,0.52205 -0.5126,0.18561 c -0.28193,0.10208 -0.69652,0.30092 -0.92132,0.44186 -0.22479,0.14094 -0.6497,0.38224 -0.94423,0.53621 -0.65891,0.34446 -0.97183,0.71153 -1.15103,1.35021 -0.15986,0.56973 -0.19888,0.6089 -1.05426,1.05839 -0.68925,0.36218 -1.0226,0.76814 -1.02547,1.24883 -0.002,0.26299 0.0561,0.28477 0.30063,0.1135 0.0937,-0.0656 0.5308,-0.26038 0.97134,-0.43277 0.68613,-0.2685 0.86911,-0.30732 1.27624,-0.27075 0.2614,0.0235 0.66145,0.12599 0.889,0.22778 0.22755,0.1018 0.58518,0.21879 0.79473,0.25998 0.20955,0.0412 0.6858,0.15314 1.05833,0.24879 2.13623,0.54847 3.13253,0.74403 4.318,0.84758 1.20569,0.10531 3.91551,0.0365 4.826,-0.12262 z"
       id="path5"
       clip-path="url(#clipPath5)"
       transform="matrix(1.0039066,0,0,1.0418231,-94.370383,-149.05274)"
       inkscape:label="path5"
       sodipodi:nodetypes="cssccscsscsccssccccsssssssssscsscssssscssssssccccccssscsssscsssscsccsssccsccscscccsccsccccccscscssccsccsccsssccccccccscc" />
    <path
       style="fill:none;stroke:#1a1a1a;stroke-width:0.45;stroke-miterlimit:4;stroke-dasharray:none"
       d="m 24.713678,20.695836 c -0.01334,0 2.835434,-1.472907 5.837264,-1.459664"
       id="path1"
       sodipodi:nodetypes="cc" />
  </g>
</svg>
